<?xml version="1.0" encoding="UTF-8" standalone="no"?>
<!DOCTYPE svg PUBLIC "-//W3C//DTD SVG 1.1//EN"
 "http://www.w3.org/Graphics/SVG/1.1/DTD/svg11.dtd">
<!-- Generated by graphviz version 2.50.0 (0)
 -->
<!-- Pages: 1 -->
<svg width="1521pt" height="98pt"
 viewBox="0.00 0.00 1521.00 98.00" xmlns="http://www.w3.org/2000/svg" xmlns:xlink="http://www.w3.org/1999/xlink">
<g id="graph0" class="graph" transform="scale(1 1) rotate(0) translate(4 94)">
<polygon fill="white" stroke="transparent" points="-4,4 -4,-94 1517,-94 1517,4 -4,4"/>
<!-- 140363069068384 -->
<g id="node1" class="node">
<title>140363069068384</title>
<polygon fill="none" stroke="black" points="514,-63 460,-63 460,-27 514,-27 514,-63"/>
<text text-anchor="middle" x="487" y="-41.9" font-family="Times,serif" font-size="12.00">add pad</text>
</g>
<!-- 140364387614624 -->
<g id="node14" class="node">
<title>140364387614624</title>
<ellipse fill="none" stroke="black" cx="577" cy="-45" rx="27" ry="27"/>
</g>
<!-- 140363069068384&#45;&gt;140364387614624 -->
<g id="edge1" class="edge">
<title>140363069068384&#45;&gt;140364387614624</title>
<path fill="none" stroke="black" d="M514.4,-45C522.39,-45 531.31,-45 539.82,-45"/>
<polygon fill="black" stroke="black" points="539.92,-48.5 549.92,-45 539.92,-41.5 539.92,-48.5"/>
</g>
<!-- 140363069068288 -->
<g id="node2" class="node">
<title>140363069068288</title>
<polygon fill="none" stroke="black" points="152,-90 90,-90 90,-54 152,-54 152,-90"/>
<text text-anchor="middle" x="121" y="-68.9" font-family="Times,serif" font-size="12.00">power on</text>
</g>
<!-- 140363069070448 -->
<g id="node18" class="node">
<title>140363069070448</title>
<ellipse fill="none" stroke="black" cx="215" cy="-45" rx="27" ry="27"/>
</g>
<!-- 140363069068288&#45;&gt;140363069070448 -->
<g id="edge8" class="edge">
<title>140363069068288&#45;&gt;140363069070448</title>
<path fill="none" stroke="black" d="M152.12,-63.16C160.73,-60.63 170.18,-57.86 179.05,-55.26"/>
<polygon fill="black" stroke="black" points="180.13,-58.59 188.74,-52.41 178.15,-51.87 180.13,-58.59"/>
</g>
<!-- 140363069067616 -->
<g id="node3" class="node">
<title>140363069067616</title>
<polygon fill="none" stroke="black" points="874,-63 820,-63 820,-27 874,-27 874,-63"/>
<text text-anchor="middle" x="847" y="-41.9" font-family="Times,serif" font-size="12.00">start</text>
</g>
<!-- 140363069957360 -->
<g id="node16" class="node">
<title>140363069957360</title>
<ellipse fill="none" stroke="black" cx="937" cy="-45" rx="27" ry="27"/>
</g>
<!-- 140363069067616&#45;&gt;140363069957360 -->
<g id="edge19" class="edge">
<title>140363069067616&#45;&gt;140363069957360</title>
<path fill="none" stroke="black" d="M874.4,-45C882.39,-45 891.31,-45 899.82,-45"/>
<polygon fill="black" stroke="black" points="899.92,-48.5 909.92,-45 899.92,-41.5 899.92,-48.5"/>
</g>
<!-- 140363069070400 -->
<g id="node4" class="node">
<title>140363069070400</title>
<polygon fill="none" stroke="black" points="1235,-90 1181,-90 1181,-54 1235,-54 1235,-90"/>
<text text-anchor="middle" x="1208" y="-68.9" font-family="Times,serif" font-size="12.00">remove</text>
</g>
<!-- 140363069069968 -->
<g id="node15" class="node">
<title>140363069069968</title>
<ellipse fill="none" stroke="black" cx="1298" cy="-45" rx="27" ry="27"/>
</g>
<!-- 140363069070400&#45;&gt;140363069069968 -->
<g id="edge16" class="edge">
<title>140363069070400&#45;&gt;140363069069968</title>
<path fill="none" stroke="black" d="M1235.4,-63.9C1243.79,-61.33 1253.2,-58.44 1262.09,-55.71"/>
<polygon fill="black" stroke="black" points="1263.29,-59 1271.82,-52.72 1261.24,-52.31 1263.29,-59"/>
</g>
<!-- 140363069070640 -->
<g id="node5" class="node">
<title>140363069070640</title>
<polygon fill="none" stroke="black" points="694,-63 640,-63 640,-27 694,-27 694,-63"/>
<text text-anchor="middle" x="667" y="-41.9" font-family="Times,serif" font-size="12.00">close</text>
</g>
<!-- 140364387542016 -->
<g id="node17" class="node">
<title>140364387542016</title>
<ellipse fill="none" stroke="black" cx="757" cy="-45" rx="27" ry="27"/>
</g>
<!-- 140363069070640&#45;&gt;140364387542016 -->
<g id="edge2" class="edge">
<title>140363069070640&#45;&gt;140364387542016</title>
<path fill="none" stroke="black" d="M694.4,-45C702.39,-45 711.31,-45 719.82,-45"/>
<polygon fill="black" stroke="black" points="719.92,-48.5 729.92,-45 719.92,-41.5 719.92,-48.5"/>
</g>
<!-- 140363069068336 -->
<g id="node6" class="node">
<title>140363069068336</title>
<polygon fill="none" stroke="black" points="1055,-63 1000,-63 1000,-27 1055,-27 1055,-63"/>
<text text-anchor="middle" x="1027.5" y="-41.9" font-family="Times,serif" font-size="12.00">produce</text>
</g>
<!-- 140364387661664 -->
<g id="node12" class="node">
<title>140364387661664</title>
<ellipse fill="none" stroke="black" cx="1118" cy="-45" rx="27" ry="27"/>
</g>
<!-- 140363069068336&#45;&gt;140364387661664 -->
<g id="edge15" class="edge">
<title>140363069068336&#45;&gt;140364387661664</title>
<path fill="none" stroke="black" d="M1055.05,-45C1063.09,-45 1072.06,-45 1080.62,-45"/>
<polygon fill="black" stroke="black" points="1080.77,-48.5 1090.77,-45 1080.77,-41.5 1080.77,-48.5"/>
</g>
<!-- 140363069068240 -->
<g id="node7" class="node">
<title>140363069068240</title>
<polygon fill="none" stroke="black" points="334,-63 278,-63 278,-27 334,-27 334,-63"/>
<text text-anchor="middle" x="306" y="-41.9" font-family="Times,serif" font-size="12.00">take pad</text>
</g>
<!-- 140363069104864 -->
<g id="node13" class="node">
<title>140363069104864</title>
<ellipse fill="none" stroke="black" cx="397" cy="-45" rx="27" ry="27"/>
</g>
<!-- 140363069068240&#45;&gt;140363069104864 -->
<g id="edge20" class="edge">
<title>140363069068240&#45;&gt;140363069104864</title>
<path fill="none" stroke="black" d="M334.19,-45C342.25,-45 351.22,-45 359.77,-45"/>
<polygon fill="black" stroke="black" points="359.89,-48.5 369.89,-45 359.89,-41.5 359.89,-48.5"/>
</g>
<!-- 140363069070160 -->
<g id="node8" class="node">
<title>140363069070160</title>
<polygon fill="none" stroke="black" points="1415,-63 1361,-63 1361,-27 1415,-27 1415,-63"/>
<text text-anchor="middle" x="1388" y="-41.9" font-family="Times,serif" font-size="12.00">enjoy</text>
</g>
<!-- 140363069068672 -->
<g id="node19" class="node">
<title>140363069068672</title>
<ellipse fill="none" stroke="black" cx="1482" cy="-45" rx="27" ry="27"/>
<ellipse fill="none" stroke="black" cx="1482" cy="-45" rx="31" ry="31"/>
<text text-anchor="start" x="1472" y="-36.9" font-family="Times,serif" font-size="32.00">■</text>
</g>
<!-- 140363069070160&#45;&gt;140363069068672 -->
<g id="edge3" class="edge">
<title>140363069070160&#45;&gt;140363069068672</title>
<path fill="none" stroke="black" d="M1415.12,-45C1423.14,-45 1432.15,-45 1440.88,-45"/>
<polygon fill="black" stroke="black" points="1440.92,-48.5 1450.92,-45 1440.92,-41.5 1440.92,-48.5"/>
</g>
<!-- 140364387660368 -->
<g id="node9" class="node">
<title>140364387660368</title>
<polygon fill="black" stroke="black" points="148,-36 94,-36 94,0 148,0 148,-36"/>
</g>
<!-- 140364387660368&#45;&gt;140363069070448 -->
<g id="edge4" class="edge">
<title>140364387660368&#45;&gt;140363069070448</title>
<path fill="none" stroke="black" d="M148.12,-25.66C157.68,-28.47 168.66,-31.69 178.88,-34.69"/>
<polygon fill="black" stroke="black" points="178.19,-38.14 188.77,-37.6 180.16,-31.42 178.19,-38.14"/>
</g>
<!-- 140364387661904 -->
<g id="node10" class="node">
<title>140364387661904</title>
<polygon fill="black" stroke="black" points="1235,-36 1181,-36 1181,0 1235,0 1235,-36"/>
</g>
<!-- 140364387661904&#45;&gt;140363069069968 -->
<g id="edge5" class="edge">
<title>140364387661904&#45;&gt;140363069069968</title>
<path fill="none" stroke="black" d="M1235.4,-26.1C1243.79,-28.67 1253.2,-31.56 1262.09,-34.29"/>
<polygon fill="black" stroke="black" points="1261.24,-37.69 1271.82,-37.28 1263.29,-31 1261.24,-37.69"/>
</g>
<!-- 140363069068528 -->
<g id="node11" class="node">
<title>140363069068528</title>
<ellipse fill="none" stroke="black" cx="27" cy="-45" rx="27" ry="27"/>
<text text-anchor="start" x="16.5" y="-36.3" font-family="Times,serif" font-size="34.00">●</text>
</g>
<!-- 140363069068528&#45;&gt;140363069068288 -->
<g id="edge18" class="edge">
<title>140363069068528&#45;&gt;140363069068288</title>
<path fill="none" stroke="black" d="M53.14,-52.38C61.5,-54.83 71.03,-57.63 80.22,-60.32"/>
<polygon fill="black" stroke="black" points="79.41,-63.73 89.99,-63.19 81.38,-57.02 79.41,-63.73"/>
</g>
<!-- 140363069068528&#45;&gt;140364387660368 -->
<g id="edge17" class="edge">
<title>140363069068528&#45;&gt;140364387660368</title>
<path fill="none" stroke="black" d="M53.14,-37.62C62.73,-34.81 73.87,-31.54 84.26,-28.49"/>
<polygon fill="black" stroke="black" points="85.32,-31.83 93.93,-25.65 83.35,-25.11 85.32,-31.83"/>
</g>
<!-- 140364387661664&#45;&gt;140363069070400 -->
<g id="edge7" class="edge">
<title>140364387661664&#45;&gt;140363069070400</title>
<path fill="none" stroke="black" d="M1143.98,-52.66C1152.42,-55.25 1162,-58.19 1171.11,-60.99"/>
<polygon fill="black" stroke="black" points="1170.14,-64.35 1180.73,-63.94 1172.19,-57.66 1170.14,-64.35"/>
</g>
<!-- 140364387661664&#45;&gt;140364387661904 -->
<g id="edge6" class="edge">
<title>140364387661664&#45;&gt;140364387661904</title>
<path fill="none" stroke="black" d="M1143.98,-37.34C1152.42,-34.75 1162,-31.81 1171.11,-29.01"/>
<polygon fill="black" stroke="black" points="1172.19,-32.34 1180.73,-26.06 1170.14,-25.65 1172.19,-32.34"/>
</g>
<!-- 140363069104864&#45;&gt;140363069068384 -->
<g id="edge9" class="edge">
<title>140363069104864&#45;&gt;140363069068384</title>
<path fill="none" stroke="black" d="M424.4,-45C432.39,-45 441.31,-45 449.82,-45"/>
<polygon fill="black" stroke="black" points="449.92,-48.5 459.92,-45 449.92,-41.5 449.92,-48.5"/>
</g>
<!-- 140364387614624&#45;&gt;140363069070640 -->
<g id="edge10" class="edge">
<title>140364387614624&#45;&gt;140363069070640</title>
<path fill="none" stroke="black" d="M604.4,-45C612.39,-45 621.31,-45 629.82,-45"/>
<polygon fill="black" stroke="black" points="629.92,-48.5 639.92,-45 629.92,-41.5 629.92,-48.5"/>
</g>
<!-- 140363069069968&#45;&gt;140363069070160 -->
<g id="edge11" class="edge">
<title>140363069069968&#45;&gt;140363069070160</title>
<path fill="none" stroke="black" d="M1325.4,-45C1333.39,-45 1342.31,-45 1350.82,-45"/>
<polygon fill="black" stroke="black" points="1350.92,-48.5 1360.92,-45 1350.92,-41.5 1350.92,-48.5"/>
</g>
<!-- 140363069957360&#45;&gt;140363069068336 -->
<g id="edge12" class="edge">
<title>140363069957360&#45;&gt;140363069068336</title>
<path fill="none" stroke="black" d="M964.07,-45C972.12,-45 981.14,-45 989.76,-45"/>
<polygon fill="black" stroke="black" points="990,-48.5 1000,-45 990,-41.5 990,-48.5"/>
</g>
<!-- 140364387542016&#45;&gt;140363069067616 -->
<g id="edge13" class="edge">
<title>140364387542016&#45;&gt;140363069067616</title>
<path fill="none" stroke="black" d="M784.4,-45C792.39,-45 801.31,-45 809.82,-45"/>
<polygon fill="black" stroke="black" points="809.92,-48.5 819.92,-45 809.92,-41.5 809.92,-48.5"/>
</g>
<!-- 140363069070448&#45;&gt;140363069068240 -->
<g id="edge14" class="edge">
<title>140363069070448&#45;&gt;140363069068240</title>
<path fill="none" stroke="black" d="M242.22,-45C250.17,-45 259.06,-45 267.59,-45"/>
<polygon fill="black" stroke="black" points="267.73,-48.5 277.73,-45 267.73,-41.5 267.73,-48.5"/>
</g>
</g>
</svg>
