<?xml version="1.0" encoding="UTF-8" standalone="no"?>
<!DOCTYPE svg PUBLIC "-//W3C//DTD SVG 1.1//EN"
 "http://www.w3.org/Graphics/SVG/1.1/DTD/svg11.dtd">
<!-- Generated by graphviz version 2.50.0 (0)
 -->
<!-- Title: imdf_net_1668442787.306786 Pages: 1 -->
<svg width="3079pt" height="368pt"
 viewBox="0.00 0.00 3079.00 368.00" xmlns="http://www.w3.org/2000/svg" xmlns:xlink="http://www.w3.org/1999/xlink">
<g id="graph0" class="graph" transform="scale(1 1) rotate(0) translate(4 364)">
<title>imdf_net_1668442787.306786</title>
<polygon fill="white" stroke="transparent" points="-4,4 -4,-364 3075,-364 3075,4 -4,4"/>
<!-- 140364095998464 -->
<g id="node1" class="node">
<title>140364095998464</title>
<polygon fill="black" stroke="black" points="54,-165 0,-165 0,-129 54,-129 54,-165"/>
</g>
<!-- 140364095998368 -->
<g id="node40" class="node">
<title>140364095998368</title>
<ellipse fill="none" stroke="black" cx="117" cy="-200" rx="27" ry="27"/>
</g>
<!-- 140364095998464&#45;&gt;140364095998368 -->
<g id="edge11" class="edge">
<title>140364095998464&#45;&gt;140364095998368</title>
<path fill="none" stroke="black" d="M54.4,-162.9C63.94,-168.64 74.79,-175.18 84.71,-181.15"/>
<polygon fill="black" stroke="black" points="83.11,-184.28 93.48,-186.44 86.72,-178.28 83.11,-184.28"/>
</g>
<!-- 140364095999760 -->
<g id="node2" class="node">
<title>140364095999760</title>
<polygon fill="black" stroke="black" points="396,-182 342,-182 342,-146 396,-146 396,-182"/>
</g>
<!-- 140364095999376 -->
<g id="node28" class="node">
<title>140364095999376</title>
<ellipse fill="none" stroke="black" cx="663" cy="-207" rx="27" ry="27"/>
</g>
<!-- 140364095999760&#45;&gt;140364095999376 -->
<g id="edge50" class="edge">
<title>140364095999760&#45;&gt;140364095999376</title>
<path fill="none" stroke="black" d="M396.24,-163.74C439.34,-163.86 527.56,-166.35 600,-183 609.5,-185.18 619.48,-188.54 628.59,-192.05"/>
<polygon fill="black" stroke="black" points="627.48,-195.38 638.07,-195.88 630.11,-188.89 627.48,-195.38"/>
</g>
<!-- 140364096043280 -->
<g id="node3" class="node">
<title>140364096043280</title>
<polygon fill="black" stroke="black" points="1337,-332 1283,-332 1283,-296 1337,-296 1337,-332"/>
</g>
<!-- 140364096042416 -->
<g id="node32" class="node">
<title>140364096042416</title>
<ellipse fill="none" stroke="black" cx="1938" cy="-251" rx="27" ry="27"/>
</g>
<!-- 140364096043280&#45;&gt;140364096042416 -->
<g id="edge39" class="edge">
<title>140364096043280&#45;&gt;140364096042416</title>
<path fill="none" stroke="black" d="M1337.05,-315.49C1418.12,-319.47 1672.58,-326.94 1875,-278 1884.91,-275.6 1895.23,-271.73 1904.54,-267.65"/>
<polygon fill="black" stroke="black" points="1906.2,-270.74 1913.82,-263.38 1903.27,-264.38 1906.2,-270.74"/>
</g>
<!-- 140363309048592 -->
<g id="node4" class="node">
<title>140363309048592</title>
<polygon fill="none" stroke="black" points="1574,-269 1373,-269 1373,-233 1574,-233 1574,-269"/>
<text text-anchor="middle" x="1473.5" y="-247.9" font-family="Times,serif" font-size="12.00">Receive Result Appeal from Prefecture</text>
</g>
<!-- 140364096042224 -->
<g id="node35" class="node">
<title>140364096042224</title>
<ellipse fill="none" stroke="black" cx="1637" cy="-251" rx="27" ry="27"/>
</g>
<!-- 140363309048592&#45;&gt;140364096042224 -->
<g id="edge8" class="edge">
<title>140363309048592&#45;&gt;140364096042224</title>
<path fill="none" stroke="black" d="M1574.02,-251C1583.04,-251 1591.72,-251 1599.59,-251"/>
<polygon fill="black" stroke="black" points="1599.77,-254.5 1609.77,-251 1599.77,-247.5 1599.77,-254.5"/>
</g>
<!-- 140364096070416 -->
<g id="node5" class="node">
<title>140364096070416</title>
<polygon fill="black" stroke="black" points="2239,-236 2185,-236 2185,-200 2239,-200 2239,-236"/>
</g>
<!-- 140364095999184 -->
<g id="node41" class="node">
<title>140364095999184</title>
<ellipse fill="none" stroke="black" cx="2302" cy="-218" rx="27" ry="27"/>
</g>
<!-- 140364096070416&#45;&gt;140364095999184 -->
<g id="edge42" class="edge">
<title>140364096070416&#45;&gt;140364095999184</title>
<path fill="none" stroke="black" d="M2239.4,-218C2247.39,-218 2256.31,-218 2264.82,-218"/>
<polygon fill="black" stroke="black" points="2264.92,-221.5 2274.92,-218 2264.92,-214.5 2264.92,-221.5"/>
</g>
<!-- 140364095999520 -->
<g id="node6" class="node">
<title>140364095999520</title>
<polygon fill="black" stroke="black" points="3071,-182 3017,-182 3017,-146 3071,-146 3071,-182"/>
</g>
<!-- 140364095996304 -->
<g id="node38" class="node">
<title>140364095996304</title>
<ellipse fill="none" stroke="black" cx="2482" cy="-212" rx="27" ry="27"/>
</g>
<!-- 140364095999520&#45;&gt;140364095996304 -->
<g id="edge49" class="edge">
<title>140364095999520&#45;&gt;140364095996304</title>
<path fill="none" stroke="black" d="M3016.84,-172.76C2974.59,-186.11 2888.47,-210 2813.5,-210 2678,-210 2678,-210 2678,-210 2622.64,-210 2558.45,-210.82 2519.29,-211.41"/>
<polygon fill="black" stroke="black" points="2519.12,-207.91 2509.18,-211.56 2519.23,-214.91 2519.12,-207.91"/>
</g>
<!-- 140364096041888 -->
<g id="node7" class="node">
<title>140364096041888</title>
<polygon fill="black" stroke="black" points="780,-224 726,-224 726,-188 780,-188 780,-224"/>
</g>
<!-- 140364095999616 -->
<g id="node30" class="node">
<title>140364095999616</title>
<ellipse fill="none" stroke="black" cx="843" cy="-206" rx="27" ry="27"/>
</g>
<!-- 140364096041888&#45;&gt;140364095999616 -->
<g id="edge12" class="edge">
<title>140364096041888&#45;&gt;140364095999616</title>
<path fill="none" stroke="black" d="M780.4,-206C788.39,-206 797.31,-206 805.82,-206"/>
<polygon fill="black" stroke="black" points="805.92,-209.5 815.92,-206 805.92,-202.5 805.92,-209.5"/>
</g>
<!-- 140364096043040 -->
<g id="node8" class="node">
<title>140364096043040</title>
<polygon fill="black" stroke="black" points="1071,-222 1017,-222 1017,-186 1071,-186 1071,-222"/>
</g>
<!-- 140364096043040&#45;&gt;140364096042416 -->
<g id="edge38" class="edge">
<title>140364096043040&#45;&gt;140364096042416</title>
<path fill="none" stroke="black" d="M1071.22,-202.68C1118.65,-200.41 1221.88,-196 1309,-196 1309,-196 1309,-196 1638,-196 1744.07,-196 1772.61,-196.31 1875,-224 1884.84,-226.66 1895.14,-230.62 1904.45,-234.7"/>
<polygon fill="black" stroke="black" points="1903.19,-237.97 1913.74,-238.94 1906.1,-231.6 1903.19,-237.97"/>
</g>
<!-- 140364096044960 -->
<g id="node9" class="node">
<title>140364096044960</title>
<polygon fill="none" stroke="black" points="1875,-269 1700,-269 1700,-233 1875,-233 1875,-269"/>
<text text-anchor="middle" x="1787.5" y="-247.9" font-family="Times,serif" font-size="12.00">Notify Result Appeal to Offender</text>
</g>
<!-- 140364096044960&#45;&gt;140364096042416 -->
<g id="edge9" class="edge">
<title>140364096044960&#45;&gt;140364096042416</title>
<path fill="none" stroke="black" d="M1875.31,-251C1884.21,-251 1892.87,-251 1900.74,-251"/>
<polygon fill="black" stroke="black" points="1900.94,-254.5 1910.94,-251 1900.94,-247.5 1900.94,-254.5"/>
</g>
<!-- 140364096043424 -->
<g id="node10" class="node">
<title>140364096043424</title>
<polygon fill="black" stroke="black" points="2057,-281 2003,-281 2003,-245 2057,-245 2057,-281"/>
</g>
<!-- 140364096042464 -->
<g id="node31" class="node">
<title>140364096042464</title>
<ellipse fill="none" stroke="black" cx="2122" cy="-215" rx="27" ry="27"/>
</g>
<!-- 140364096043424&#45;&gt;140364096042464 -->
<g id="edge40" class="edge">
<title>140364096043424&#45;&gt;140364096042464</title>
<path fill="none" stroke="black" d="M2057.03,-249.12C2066.99,-243.81 2078.46,-237.69 2088.92,-232.11"/>
<polygon fill="black" stroke="black" points="2090.61,-235.17 2097.79,-227.38 2087.32,-229 2090.61,-235.17"/>
</g>
<!-- 140364096044576 -->
<g id="node11" class="node">
<title>140364096044576</title>
<polygon fill="none" stroke="black" points="2059,-227 2001,-227 2001,-191 2059,-191 2059,-227"/>
<text text-anchor="middle" x="2030" y="-205.9" font-family="Times,serif" font-size="12.00">Payment</text>
</g>
<!-- 140364096044576&#45;&gt;140364096042464 -->
<g id="edge3" class="edge">
<title>140364096044576&#45;&gt;140364096042464</title>
<path fill="none" stroke="black" d="M2059.48,-210.9C2067.53,-211.44 2076.41,-212.03 2084.85,-212.59"/>
<polygon fill="black" stroke="black" points="2084.64,-216.08 2094.85,-213.26 2085.1,-209.1 2084.64,-216.08"/>
</g>
<!-- 140364096071328 -->
<g id="node12" class="node">
<title>140364096071328</title>
<polygon fill="black" stroke="black" points="2419,-333 2365,-333 2365,-297 2419,-297 2419,-333"/>
</g>
<!-- 140364096071328&#45;&gt;140364095998368 -->
<g id="edge43" class="edge">
<title>140364096071328&#45;&gt;140364095998368</title>
<path fill="none" stroke="black" d="M2364.98,-325.89C2330.76,-339.21 2268.46,-360 2213,-360 368,-360 368,-360 368,-360 271.31,-360 182.05,-274.04 141.27,-228.13"/>
<polygon fill="black" stroke="black" points="143.9,-225.82 134.69,-220.59 138.63,-230.43 143.9,-225.82"/>
</g>
<!-- 140364095999280 -->
<g id="node13" class="node">
<title>140364095999280</title>
<polygon fill="none" stroke="black" points="2845,-90 2780,-90 2780,-54 2845,-54 2845,-90"/>
<text text-anchor="middle" x="2812.5" y="-68.9" font-family="Times,serif" font-size="12.00">Send Fine</text>
</g>
<!-- 140364095998080 -->
<g id="node39" class="node">
<title>140364095998080</title>
<ellipse fill="none" stroke="black" cx="2950" cy="-95" rx="27" ry="27"/>
</g>
<!-- 140364095999280&#45;&gt;140364095998080 -->
<g id="edge1" class="edge">
<title>140364095999280&#45;&gt;140364095998080</title>
<path fill="none" stroke="black" d="M2845.27,-77.39C2865.7,-80.86 2892.29,-85.37 2913.43,-88.96"/>
<polygon fill="black" stroke="black" points="2912.88,-92.42 2923.32,-90.64 2914.05,-85.52 2912.88,-92.42"/>
</g>
<!-- 140364096041648 -->
<g id="node14" class="node">
<title>140364096041648</title>
<polygon fill="none" stroke="black" points="306,-243 180,-243 180,-207 306,-207 306,-243"/>
<text text-anchor="middle" x="243" y="-221.9" font-family="Times,serif" font-size="12.00">Insert Fine Notification</text>
</g>
<!-- 140364096041120 -->
<g id="node29" class="node">
<title>140364096041120</title>
<ellipse fill="none" stroke="black" cx="369" cy="-227" rx="27" ry="27"/>
</g>
<!-- 140364096041648&#45;&gt;140364096041120 -->
<g id="edge5" class="edge">
<title>140364096041648&#45;&gt;140364096041120</title>
<path fill="none" stroke="black" d="M306.36,-226.01C315.09,-226.15 323.8,-226.29 331.81,-226.42"/>
<polygon fill="black" stroke="black" points="331.83,-229.92 341.88,-226.58 331.94,-222.92 331.83,-229.92"/>
</g>
<!-- 140364096042032 -->
<g id="node15" class="node">
<title>140364096042032</title>
<polygon fill="black" stroke="black" points="543,-228 489,-228 489,-192 543,-192 543,-228"/>
</g>
<!-- 140364096042032&#45;&gt;140364095999376 -->
<g id="edge51" class="edge">
<title>140364096042032&#45;&gt;140364095999376</title>
<path fill="none" stroke="black" d="M543.26,-209.46C566.36,-208.98 600.2,-208.28 625.85,-207.75"/>
<polygon fill="black" stroke="black" points="626.01,-211.25 635.94,-207.54 625.87,-204.25 626.01,-211.25"/>
</g>
<!-- 140364096042944 -->
<g id="node16" class="node">
<title>140364096042944</title>
<polygon fill="none" stroke="black" points="981,-277 906,-277 906,-241 981,-241 981,-277"/>
<text text-anchor="middle" x="943.5" y="-255.9" font-family="Times,serif" font-size="12.00">Add penalty</text>
</g>
<!-- 140364096043568 -->
<g id="node33" class="node">
<title>140364096043568</title>
<ellipse fill="none" stroke="black" cx="1044" cy="-267" rx="27" ry="27"/>
</g>
<!-- 140364096042944&#45;&gt;140364096043568 -->
<g id="edge7" class="edge">
<title>140364096042944&#45;&gt;140364096043568</title>
<path fill="none" stroke="black" d="M981.18,-261.98C989.56,-262.66 998.47,-263.38 1006.83,-264.06"/>
<polygon fill="black" stroke="black" points="1006.8,-267.57 1017.05,-264.89 1007.37,-260.59 1006.8,-267.57"/>
</g>
<!-- 140364095999040 -->
<g id="node17" class="node">
<title>140364095999040</title>
<polygon fill="black" stroke="black" points="2607.5,-182 2553.5,-182 2553.5,-146 2607.5,-146 2607.5,-182"/>
</g>
<!-- 140364095997648 -->
<g id="node37" class="node">
<title>140364095997648</title>
<ellipse fill="none" stroke="black" cx="2679" cy="-63" rx="27" ry="27"/>
</g>
<!-- 140364095999040&#45;&gt;140364095997648 -->
<g id="edge45" class="edge">
<title>140364095999040&#45;&gt;140364095997648</title>
<path fill="none" stroke="black" d="M2598.75,-145.94C2613.74,-130.25 2635.65,-107.32 2652.64,-89.54"/>
<polygon fill="black" stroke="black" points="2655.21,-91.92 2659.58,-82.28 2650.14,-87.09 2655.21,-91.92"/>
</g>
<!-- 140364096070464 -->
<g id="node18" class="node">
<title>140364096070464</title>
<polygon fill="black" stroke="black" points="2607.5,-279 2553.5,-279 2553.5,-243 2607.5,-243 2607.5,-279"/>
</g>
<!-- 140364095997456 -->
<g id="node36" class="node">
<title>140364095997456</title>
<ellipse fill="none" stroke="black" cx="2679" cy="-265" rx="27" ry="27"/>
</g>
<!-- 140364096070464&#45;&gt;140364095997456 -->
<g id="edge46" class="edge">
<title>140364096070464&#45;&gt;140364095997456</title>
<path fill="none" stroke="black" d="M2607.61,-262.08C2618.13,-262.52 2630.43,-263.03 2641.78,-263.5"/>
<polygon fill="black" stroke="black" points="2641.73,-267 2651.86,-263.92 2642.02,-260.01 2641.73,-267"/>
</g>
<!-- 140364096072000 -->
<g id="node19" class="node">
<title>140364096072000</title>
<polygon fill="none" stroke="black" points="2883,-332 2742,-332 2742,-296 2883,-296 2883,-332"/>
<text text-anchor="middle" x="2812.5" y="-310.9" font-family="Times,serif" font-size="12.00">Send for Credit Collection</text>
</g>
<!-- 140364095997360 -->
<g id="node42" class="node">
<title>140364095997360</title>
<ellipse fill="none" stroke="black" cx="2950" cy="-289" rx="27" ry="27"/>
<ellipse fill="none" stroke="black" cx="2950" cy="-289" rx="31" ry="31"/>
<text text-anchor="start" x="2940" y="-280.9" font-family="Times,serif" font-size="32.00">■</text>
</g>
<!-- 140364096072000&#45;&gt;140364095997360 -->
<g id="edge10" class="edge">
<title>140364096072000&#45;&gt;140364095997360</title>
<path fill="none" stroke="black" d="M2883.23,-301.13C2892.17,-299.49 2901.06,-297.84 2909.28,-296.33"/>
<polygon fill="black" stroke="black" points="2910.09,-299.74 2919.29,-294.48 2908.82,-292.85 2910.09,-299.74"/>
</g>
<!-- 140364096041552 -->
<g id="node20" class="node">
<title>140364096041552</title>
<polygon fill="none" stroke="black" points="600,-282 432,-282 432,-246 600,-246 600,-282"/>
<text text-anchor="middle" x="516" y="-260.9" font-family="Times,serif" font-size="12.00">Insert Date Appeal to Prefecture</text>
</g>
<!-- 140364096041552&#45;&gt;140364095999376 -->
<g id="edge4" class="edge">
<title>140364096041552&#45;&gt;140364095999376</title>
<path fill="none" stroke="black" d="M575.85,-245.96C584.03,-243.13 592.27,-240.11 600,-237 609.82,-233.05 620.26,-228.24 629.71,-223.65"/>
<polygon fill="black" stroke="black" points="631.37,-226.73 638.79,-219.16 628.27,-220.46 631.37,-226.73"/>
</g>
<!-- 140364096071760 -->
<g id="node21" class="node">
<title>140364096071760</title>
<polygon fill="black" stroke="black" points="2419,-234 2365,-234 2365,-198 2419,-198 2419,-234"/>
</g>
<!-- 140364096071760&#45;&gt;140364095996304 -->
<g id="edge44" class="edge">
<title>140364096071760&#45;&gt;140364095996304</title>
<path fill="none" stroke="black" d="M2419.4,-214.8C2427.39,-214.44 2436.31,-214.03 2444.82,-213.64"/>
<polygon fill="black" stroke="black" points="2445.09,-217.14 2454.92,-213.19 2444.77,-210.14 2445.09,-217.14"/>
</g>
<!-- 140362761594720 -->
<g id="node22" class="node">
<title>140362761594720</title>
<polygon fill="none" stroke="black" points="2616,-81 2545,-81 2545,-45 2616,-45 2616,-81"/>
<text text-anchor="middle" x="2580.5" y="-59.9" font-family="Times,serif" font-size="12.00">Create Fine</text>
</g>
<!-- 140362761594720&#45;&gt;140364095997648 -->
<g id="edge6" class="edge">
<title>140362761594720&#45;&gt;140364095997648</title>
<path fill="none" stroke="black" d="M2616.07,-63C2624.36,-63 2633.23,-63 2641.6,-63"/>
<polygon fill="black" stroke="black" points="2641.85,-66.5 2651.85,-63 2641.85,-59.5 2641.85,-66.5"/>
</g>
<!-- 140364095998560 -->
<g id="node23" class="node">
<title>140364095998560</title>
<polygon fill="black" stroke="black" points="2839.5,-36 2785.5,-36 2785.5,0 2839.5,0 2839.5,-36"/>
</g>
<!-- 140364095998560&#45;&gt;140364095998080 -->
<g id="edge48" class="edge">
<title>140364095998560&#45;&gt;140364095998080</title>
<path fill="none" stroke="black" d="M2839.69,-26.23C2853.05,-30.91 2869.33,-37.36 2883,-45 2896.33,-52.45 2909.96,-62.32 2921.35,-71.33"/>
<polygon fill="black" stroke="black" points="2919.23,-74.12 2929.21,-77.68 2923.63,-68.67 2919.23,-74.12"/>
</g>
<!-- 140364096069984 -->
<g id="node24" class="node">
<title>140364096069984</title>
<polygon fill="black" stroke="black" points="2239,-182 2185,-182 2185,-146 2239,-146 2239,-182"/>
</g>
<!-- 140364096069984&#45;&gt;140364095999616 -->
<g id="edge41" class="edge">
<title>140364096069984&#45;&gt;140364095999616</title>
<path fill="none" stroke="black" d="M2184.78,-162.58C2149.74,-160.8 2085.72,-158 2031,-158 1043,-158 1043,-158 1043,-158 983.66,-158 917.07,-178.42 877.94,-192.62"/>
<polygon fill="black" stroke="black" points="876.52,-189.41 868.36,-196.17 878.96,-195.98 876.52,-189.41"/>
</g>
<!-- 140364096044144 -->
<g id="node25" class="node">
<title>140364096044144</title>
<polygon fill="none" stroke="black" points="1247,-277 1107,-277 1107,-241 1247,-241 1247,-277"/>
<text text-anchor="middle" x="1177" y="-255.9" font-family="Times,serif" font-size="12.00">Send Appeal to Prefecture</text>
</g>
<!-- 140364096043520 -->
<g id="node34" class="node">
<title>140364096043520</title>
<ellipse fill="none" stroke="black" cx="1310" cy="-251" rx="27" ry="27"/>
</g>
<!-- 140364096044144&#45;&gt;140364096043520 -->
<g id="edge2" class="edge">
<title>140364096044144&#45;&gt;140364096043520</title>
<path fill="none" stroke="black" d="M1247.34,-254.77C1256.13,-254.23 1264.82,-253.7 1272.79,-253.21"/>
<polygon fill="black" stroke="black" points="1273.03,-256.7 1282.8,-252.6 1272.6,-249.72 1273.03,-256.7"/>
</g>
<!-- 140364096071280 -->
<g id="node26" class="node">
<title>140364096071280</title>
<polygon fill="black" stroke="black" points="2839.5,-278 2785.5,-278 2785.5,-242 2839.5,-242 2839.5,-278"/>
</g>
<!-- 140364096071280&#45;&gt;140364095997360 -->
<g id="edge47" class="edge">
<title>140364096071280&#45;&gt;140364095997360</title>
<path fill="none" stroke="black" d="M2839.63,-265.59C2859.37,-269.82 2886.8,-275.69 2909.26,-280.49"/>
<polygon fill="black" stroke="black" points="2908.67,-283.95 2919.18,-282.62 2910.13,-277.1 2908.67,-283.95"/>
</g>
<!-- 140364095996976 -->
<g id="node27" class="node">
<title>140364095996976</title>
<ellipse fill="none" stroke="black" cx="2482" cy="-63" rx="27" ry="27"/>
<text text-anchor="start" x="2471.5" y="-54.3" font-family="Times,serif" font-size="34.00">●</text>
</g>
<!-- 140364095996976&#45;&gt;140362761594720 -->
<g id="edge52" class="edge">
<title>140364095996976&#45;&gt;140362761594720</title>
<path fill="none" stroke="black" d="M2509.11,-63C2516.98,-63 2525.84,-63 2534.56,-63"/>
<polygon fill="black" stroke="black" points="2534.66,-66.5 2544.66,-63 2534.66,-59.5 2534.66,-66.5"/>
</g>
<!-- 140364095999376&#45;&gt;140364096041888 -->
<g id="edge13" class="edge">
<title>140364095999376&#45;&gt;140364096041888</title>
<path fill="none" stroke="black" d="M690.4,-206.7C698.39,-206.61 707.31,-206.51 715.82,-206.41"/>
<polygon fill="black" stroke="black" points="715.96,-209.91 725.92,-206.3 715.88,-202.91 715.96,-209.91"/>
</g>
<!-- 140364096041120&#45;&gt;140364096042032 -->
<g id="edge15" class="edge">
<title>140364096041120&#45;&gt;140364096042032</title>
<path fill="none" stroke="black" d="M395.92,-223.96C418.98,-221.26 452.93,-217.28 478.68,-214.26"/>
<polygon fill="black" stroke="black" points="479.29,-217.71 488.81,-213.07 478.47,-210.76 479.29,-217.71"/>
</g>
<!-- 140364096041120&#45;&gt;140364096041552 -->
<g id="edge14" class="edge">
<title>140364096041120&#45;&gt;140364096041552</title>
<path fill="none" stroke="black" d="M395.26,-233.44C406.4,-236.29 420.18,-239.8 434.38,-243.43"/>
<polygon fill="black" stroke="black" points="433.69,-246.86 444.25,-245.95 435.42,-240.08 433.69,-246.86"/>
</g>
<!-- 140364095999616&#45;&gt;140364096043040 -->
<g id="edge17" class="edge">
<title>140364095999616&#45;&gt;140364096043040</title>
<path fill="none" stroke="black" d="M870.02,-205.74C905.03,-205.39 967.46,-204.76 1006.97,-204.36"/>
<polygon fill="black" stroke="black" points="1007.01,-207.86 1016.98,-204.26 1006.94,-200.86 1007.01,-207.86"/>
</g>
<!-- 140364095999616&#45;&gt;140364096042944 -->
<g id="edge16" class="edge">
<title>140364095999616&#45;&gt;140364096042944</title>
<path fill="none" stroke="black" d="M867.09,-218.43C876.88,-223.69 888.6,-230 899.85,-236.05"/>
<polygon fill="black" stroke="black" points="898.26,-239.17 908.73,-240.83 901.58,-233.01 898.26,-239.17"/>
</g>
<!-- 140364096042464&#45;&gt;140364096070416 -->
<g id="edge19" class="edge">
<title>140364096042464&#45;&gt;140364096070416</title>
<path fill="none" stroke="black" d="M2149.4,-215.9C2157.39,-216.17 2166.31,-216.48 2174.82,-216.77"/>
<polygon fill="black" stroke="black" points="2174.81,-220.27 2184.92,-217.11 2175.04,-213.27 2174.81,-220.27"/>
</g>
<!-- 140364096042464&#45;&gt;140364096069984 -->
<g id="edge18" class="edge">
<title>140364096042464&#45;&gt;140364096069984</title>
<path fill="none" stroke="black" d="M2145.66,-201.87C2154.96,-196.48 2165.93,-190.12 2176.2,-184.17"/>
<polygon fill="black" stroke="black" points="2178.09,-187.12 2184.99,-179.08 2174.58,-181.06 2178.09,-187.12"/>
</g>
<!-- 140364096042416&#45;&gt;140364096043424 -->
<g id="edge21" class="edge">
<title>140364096042416&#45;&gt;140364096043424</title>
<path fill="none" stroke="black" d="M1965.03,-254.47C1973.63,-255.62 1983.36,-256.92 1992.59,-258.15"/>
<polygon fill="black" stroke="black" points="1992.34,-261.64 2002.71,-259.5 1993.27,-254.7 1992.34,-261.64"/>
</g>
<!-- 140364096042416&#45;&gt;140364096044576 -->
<g id="edge20" class="edge">
<title>140364096042416&#45;&gt;140364096044576</title>
<path fill="none" stroke="black" d="M1962.65,-239.96C1971.49,-235.84 1981.76,-231.05 1991.54,-226.48"/>
<polygon fill="black" stroke="black" points="1993.13,-229.6 2000.71,-222.2 1990.17,-223.26 1993.13,-229.6"/>
</g>
<!-- 140364096043568&#45;&gt;140364096043280 -->
<g id="edge23" class="edge">
<title>140364096043568&#45;&gt;140364096043280</title>
<path fill="none" stroke="black" d="M1069.8,-275.59C1081.04,-279.23 1094.58,-283.25 1107,-286 1164.4,-298.69 1232.32,-306.7 1272.97,-310.76"/>
<polygon fill="black" stroke="black" points="1272.64,-314.24 1282.94,-311.73 1273.32,-307.28 1272.64,-314.24"/>
</g>
<!-- 140364096043568&#45;&gt;140364096044144 -->
<g id="edge22" class="edge">
<title>140364096043568&#45;&gt;140364096044144</title>
<path fill="none" stroke="black" d="M1071.19,-265.4C1078.87,-264.93 1087.69,-264.39 1096.89,-263.83"/>
<polygon fill="black" stroke="black" points="1097.2,-267.32 1106.97,-263.22 1096.78,-260.33 1097.2,-267.32"/>
</g>
<!-- 140364096043520&#45;&gt;140363309048592 -->
<g id="edge24" class="edge">
<title>140364096043520&#45;&gt;140363309048592</title>
<path fill="none" stroke="black" d="M1337.31,-251C1344.79,-251 1353.44,-251 1362.68,-251"/>
<polygon fill="black" stroke="black" points="1362.9,-254.5 1372.9,-251 1362.9,-247.5 1362.9,-254.5"/>
</g>
<!-- 140364096042224&#45;&gt;140364096044960 -->
<g id="edge25" class="edge">
<title>140364096042224&#45;&gt;140364096044960</title>
<path fill="none" stroke="black" d="M1664.21,-251C1671.73,-251 1680.4,-251 1689.59,-251"/>
<polygon fill="black" stroke="black" points="1689.73,-254.5 1699.73,-251 1689.72,-247.5 1689.73,-254.5"/>
</g>
<!-- 140364095997456&#45;&gt;140364096072000 -->
<g id="edge26" class="edge">
<title>140364095997456&#45;&gt;140364096072000</title>
<path fill="none" stroke="black" d="M2704.43,-274.1C2718.28,-279.26 2736.24,-285.96 2753.48,-292.38"/>
<polygon fill="black" stroke="black" points="2752.37,-295.7 2762.96,-295.91 2754.81,-289.14 2752.37,-295.7"/>
</g>
<!-- 140364095997456&#45;&gt;140364096071280 -->
<g id="edge27" class="edge">
<title>140364095997456&#45;&gt;140364096071280</title>
<path fill="none" stroke="black" d="M2706.29,-264C2726,-263.25 2753.22,-262.22 2775.03,-261.39"/>
<polygon fill="black" stroke="black" points="2775.39,-264.88 2785.25,-261 2775.12,-257.88 2775.39,-264.88"/>
</g>
<!-- 140364095997648&#45;&gt;140364095999280 -->
<g id="edge28" class="edge">
<title>140364095997648&#45;&gt;140364095999280</title>
<path fill="none" stroke="black" d="M2705.98,-64.78C2724.04,-66.01 2748.5,-67.69 2769.33,-69.11"/>
<polygon fill="black" stroke="black" points="2769.31,-72.62 2779.53,-69.81 2769.79,-65.64 2769.31,-72.62"/>
</g>
<!-- 140364095997648&#45;&gt;140364095998560 -->
<g id="edge29" class="edge">
<title>140364095997648&#45;&gt;140364095998560</title>
<path fill="none" stroke="black" d="M2704.73,-54.54C2724.7,-47.71 2753.05,-38 2775.53,-30.31"/>
<polygon fill="black" stroke="black" points="2776.74,-33.59 2785.07,-27.04 2774.48,-26.97 2776.74,-33.59"/>
</g>
<!-- 140364095996304&#45;&gt;140364095999040 -->
<g id="edge30" class="edge">
<title>140364095996304&#45;&gt;140364095999040</title>
<path fill="none" stroke="black" d="M2506.85,-200.13C2518.06,-194.56 2531.65,-187.8 2544.03,-181.64"/>
<polygon fill="black" stroke="black" points="2545.81,-184.67 2553.21,-177.08 2542.69,-178.4 2545.81,-184.67"/>
</g>
<!-- 140364095996304&#45;&gt;140364096070464 -->
<g id="edge31" class="edge">
<title>140364095996304&#45;&gt;140364096070464</title>
<path fill="none" stroke="black" d="M2506.36,-223.86C2517.76,-229.65 2531.71,-236.74 2544.37,-243.16"/>
<polygon fill="black" stroke="black" points="2542.79,-246.29 2553.29,-247.69 2545.96,-240.05 2542.79,-246.29"/>
</g>
<!-- 140364095998080&#45;&gt;140364095998464 -->
<g id="edge32" class="edge">
<title>140364095998080&#45;&gt;140364095998464</title>
<path fill="none" stroke="black" d="M2923.1,-98.7C2875.2,-105.2 2769.53,-118 2680,-118 242,-118 242,-118 242,-118 178.96,-118 106.42,-130.51 64.04,-139.1"/>
<polygon fill="black" stroke="black" points="63.29,-135.68 54.2,-141.13 64.7,-142.53 63.29,-135.68"/>
</g>
<!-- 140364095998080&#45;&gt;140364095999520 -->
<g id="edge33" class="edge">
<title>140364095998080&#45;&gt;140364095999520</title>
<path fill="none" stroke="black" d="M2972.34,-111C2983.75,-119.56 2998.03,-130.27 3010.76,-139.82"/>
<polygon fill="black" stroke="black" points="3008.76,-142.69 3018.86,-145.89 3012.96,-137.09 3008.76,-142.69"/>
</g>
<!-- 140364095998368&#45;&gt;140364095999760 -->
<g id="edge35" class="edge">
<title>140364095998368&#45;&gt;140364095999760</title>
<path fill="none" stroke="black" d="M143.81,-196.28C188.63,-189.83 280.93,-176.54 332.01,-169.18"/>
<polygon fill="black" stroke="black" points="332.55,-172.64 341.95,-167.75 331.56,-165.71 332.55,-172.64"/>
</g>
<!-- 140364095998368&#45;&gt;140364096041648 -->
<g id="edge34" class="edge">
<title>140364095998368&#45;&gt;140364096041648</title>
<path fill="none" stroke="black" d="M143.69,-205.18C151.54,-206.76 160.58,-208.58 169.94,-210.47"/>
<polygon fill="black" stroke="black" points="169.27,-213.91 179.76,-212.45 170.65,-207.04 169.27,-213.91"/>
</g>
<!-- 140364095999184&#45;&gt;140364096071328 -->
<g id="edge36" class="edge">
<title>140364095999184&#45;&gt;140364096071328</title>
<path fill="none" stroke="black" d="M2320.81,-237.63C2334.27,-252.47 2352.89,-272.99 2367.56,-289.16"/>
<polygon fill="black" stroke="black" points="2365.1,-291.66 2374.41,-296.71 2370.28,-286.95 2365.1,-291.66"/>
</g>
<!-- 140364095999184&#45;&gt;140364096071760 -->
<g id="edge37" class="edge">
<title>140364095999184&#45;&gt;140364096071760</title>
<path fill="none" stroke="black" d="M2329.4,-217.4C2337.39,-217.22 2346.31,-217.02 2354.82,-216.82"/>
<polygon fill="black" stroke="black" points="2355,-220.32 2364.92,-216.59 2354.84,-213.32 2355,-220.32"/>
</g>
</g>
</svg>
